<svg width="80" height="80" viewBox="0 0 80 80" fill="none" xmlns="http://www.w3.org/2000/svg">
<circle cx="40" cy="40" r="40" fill="white"/>
<path d="M43.7733 50C42.3247 50 41.021 49.2003 40.4054 47.8915L35.1542 37.3847L33.6332 40.2203C32.8002 41.7836 31.1344 42.7653 29.3599 42.7653H26.7161C25.2313 42.7653 24 41.5292 24 40.0386C24 38.548 25.2313 37.3119 26.7161 37.3119H29.0338L31.8948 32.0039C32.5829 30.7678 33.9591 29.9317 35.2628 30.0044C36.6752 30.0044 37.9428 30.8406 38.5946 32.0767L43.7733 42.4744L45.0046 39.9658C45.8376 38.2934 47.4673 37.2755 49.3505 37.2755H52.2839C53.7687 37.2755 55 38.5116 55 40.0022C55 41.4928 53.7687 42.7289 52.2839 42.7289H49.7126L47.1413 47.8551C46.4894 49.2003 45.2219 50 43.7733 50Z" fill="#0F0C15"/>
</svg>
